<svg t="1705487954762" class="icon" viewBox="0 0 1024 1024" version="1.1" xmlns="http://www.w3.org/2000/svg" p-id="4252" width="200" height="200"><path d="M73.1 0h877.7c40.4 0 73.1 32.7 73.1 73.1v877.7c0 40.4-32.7 73.1-73.1 73.1H73.1c-40.4 0.1-73.1-32.6-73.1-73V73.1C0 32.7 32.7 0 73.1 0z" fill="#F5F5F5" p-id="4253"></path><path d="M139.5 287.7c0 53 41.6 95.9 93 95.9s93-42.9 93-95.9c0-53-41.6-95.9-92.9-95.9-51.4 0-93 42.9-93.1 95.9z" fill="#DDDDDD" p-id="4254"></path><path d="M73.1 1024h877.7c40.4 0 73.1-32.7 73.1-73.1v-19.4L701 476c-17-23.9-44.2-23.8-61.1 0L379.1 843.7 253 663.7c-16.8-23.9-43.8-23.9-60.5 0L0 938.3v12.6c0 40.4 32.7 73.1 73.1 73.1z" fill="#DDDDDD" p-id="4255"></path></svg>